<svg width="24px" height="24px" viewBox="0 0 24 24"><path d="M2.8,22.2c-0.6,0-1-0.2-1.5-0.6s-0.6-0.9-0.6-1.5c0-0.6,0.2-1,0.6-1.4c0.4-0.4,0.9-0.6,1.5-0.6c0.5,0,1,0.2,1.4,0.6,c0.4,0.4,0.6,0.9,0.6,1.4c0,0.6-0.2,1.1-0.6,1.5C3.8,22,3.4,22.2,2.8,22.2,M13.6,22.8c-0.9,0-1.7-0.1-2.4-0.2c-0.7-0.1-1.3-0.3-1.9-0.6c-0.5-0.3-0.9-0.8-1.2-1.4S7.7,19.1,7.7,18v-1.9,c0-0.9-0.2-1.5-0.6-1.9c-0.4-0.4-1.1-0.6-2-0.6v-3.3c1,0,1.7-0.2,2-0.6c0.4-0.4,0.6-1,0.6-1.9V6c0-1.1,0.1-1.9,0.4-2.5,S8.8,2.4,9.3,2c0.5-0.3,1.2-0.6,1.9-0.7c0.7-0.1,1.5-0.2,2.4-0.2v2.7c-0.7,0-1.2,0.1-1.5,0.3c-0.4,0.2-0.6,0.4-0.7,0.8,c-0.1,0.4-0.2,0.8-0.2,1.4v2.5c0,0.4-0.1,0.8-0.2,1.2c-0.2,0.4-0.5,0.7-0.9,1c-0.4,0.3-1.1,0.5-1.9,0.7v0.4c0.8,0.2,1.5,0.4,1.9,0.7,c0.4,0.3,0.7,0.7,0.9,1c0.2,0.4,0.2,0.8,0.2,1.2v2.5c0,0.5,0.1,1,0.2,1.4c0.1,0.4,0.4,0.6,0.7,0.8c0.4,0.2,0.9,0.3,1.5,0.3V22.8,M14.7,22.8v-2.7c0.7,0,1.2-0.1,1.5-0.3c0.4-0.2,0.6-0.4,0.7-0.8c0.1-0.4,0.2-0.8,0.2-1.4v-2.5c0-0.4,0.1-0.9,0.3-1.2,c0.2-0.4,0.5-0.7,0.9-1c0.4-0.3,1.1-0.5,1.9-0.7v-0.4c-0.8-0.2-1.5-0.4-1.9-0.7s-0.7-0.7-0.9-1c-0.2-0.4-0.3-0.8-0.3-1.2V6.3,c0-0.5-0.1-1-0.2-1.4s-0.4-0.6-0.7-0.8c-0.4-0.2-0.9-0.3-1.5-0.3V1.2c0.9,0,1.7,0.1,2.4,0.2c0.7,0.1,1.3,0.3,1.9,0.6,c0.5,0.3,0.9,0.8,1.2,1.4c0.3,0.6,0.4,1.5,0.4,2.5v1.9c0,0.9,0.2,1.5,0.6,1.9s1.1,0.6,2,0.6v3.3c-1,0-1.7,0.2-2,0.6,c-0.4,0.4-0.6,1-0.6,1.9V18c0,1.1-0.1,1.9-0.4,2.5c-0.3,0.6-0.7,1.1-1.2,1.4c-0.5,0.3-1.2,0.6-1.9,0.7,C16.4,22.7,15.6,22.8,14.7,22.8"/></svg>
